<svg width="32" height="32" viewBox="0 0 32 32" fill="none" xmlns="http://www.w3.org/2000/svg">
<path d="M2.90898 3.41C2.67045 3.4076 2.44073 3.49999 2.27028 3.66687C2.09984 3.83375 2.00262 4.06147 1.99998 4.3C1.99894 4.35193 2.00296 4.40384 2.01198 4.455L5.81998 27.568C5.86746 27.8508 6.01306 28.1079 6.23123 28.2941C6.4494 28.4803 6.72618 28.5836 7.01298 28.586H25.282C25.4974 28.5888 25.7067 28.5143 25.8719 28.376C26.037 28.2376 26.147 28.0446 26.182 27.832L29.987 4.454C30.0255 4.21938 29.9696 3.97905 29.8315 3.78551C29.6934 3.59196 29.4844 3.46092 29.25 3.421C29.2014 3.41303 29.1522 3.40902 29.103 3.409L2.90898 3.41ZM18.944 20.119H13.113L11.534 11.875H20.357L18.944 20.119Z" fill="#2684FF"/>
<path d="M28.776 11.874H20.357L18.944 20.118H13.113L6.22803 28.3C6.44545 28.4906 6.72392 28.597 7.01303 28.6H25.287C25.5025 28.6029 25.7118 28.5284 25.8769 28.39C26.0421 28.2516 26.1521 28.0586 26.187 27.846L28.776 11.874Z" fill="url(#paint0_linear_24_34)"/>
<defs>
<linearGradient id="paint0_linear_24_34" x1="30.3211" y1="13.8725" x2="16.4104" y2="24.7318" gradientUnits="userSpaceOnUse">
<stop offset="0.18" stop-color="#0052CC"/>
<stop offset="1" stop-color="#2684FF"/>
</linearGradient>
</defs>
</svg>
