<svg width="21" height="31" viewBox="0 0 21 31" fill="none" xmlns="http://www.w3.org/2000/svg">
<path d="M5.25 31C8.148 31 10.5 28.6854 10.5 25.8334V20.6667H5.25C2.352 20.6667 0 22.9814 0 25.8334C0 28.6854 2.352 31 5.25 31Z" fill="#0ACF83"/>
<path d="M0 15.5C0 12.648 2.352 10.3333 5.25 10.3333H10.5V20.6666H5.25C2.352 20.6666 0 18.352 0 15.5Z" fill="#A259FF"/>
<path d="M0 5.16667C0 2.31467 2.352 0 5.25 0H10.5V10.3333H5.25C2.352 10.3333 0 8.01867 0 5.16667Z" fill="#F24E1E"/>
<path d="M10.5 0H15.75C18.648 0 21 2.31467 21 5.16667C21 8.01867 18.648 10.3333 15.75 10.3333H10.5V0Z" fill="#FF7262"/>
<path d="M21 15.5C21 18.352 18.648 20.6666 15.75 20.6666C12.852 20.6666 10.5 18.352 10.5 15.5C10.5 12.648 12.852 10.3333 15.75 10.3333C18.648 10.3333 21 12.648 21 15.5Z" fill="#1ABCFE"/>
</svg>
