<svg width="48" height="48" viewBox="0 0 32 32" fill="none" xmlns="http://www.w3.org/2000/svg">
<g clip-path="url(#clip0_24_14)">
<path d="M20.208 25.912L21.057 24.464C21.057 24.464 19.13 25.251 15.912 25.251C12.688 25.251 10.792 24.495 10.792 24.495L11.74 26.074L12.073 31.042C12.073 31.585 13.822 32.001 15.989 32.001C18.15 32.001 19.906 31.585 19.906 31.042L20.207 25.933L20.208 25.912ZM21.027 16.516C20.006 16.579 19.49 17.719 18.974 18.921C18.787 19.36 18.137 21.24 17.714 21.005C17.287 20.776 18.261 19.234 18.537 18.317C18.22 18.546 17.064 19.448 16.766 18.604C16.287 19.021 15.261 19.245 15.375 18.161C15.12 18.625 14.547 19.26 13.86 18.984C12.959 18.64 14.385 15.765 14.74 15.907C15.093 16.068 14.667 16.708 14.557 16.964C14.306 17.527 14.026 18.245 14.213 18.38C14.536 18.64 15.421 17.448 15.442 17.421C15.603 17.202 16.078 15.786 16.458 15.948C16.838 16.125 15.51 18.005 16.005 18.38C16.104 18.464 16.516 18.344 16.765 18.063C16.921 17.907 16.869 17.506 17.401 16.23C17.942 14.949 18.421 13.355 18.786 13.474C19.155 13.594 18.854 14.413 18.718 14.73C18.098 16.167 17.03 18.522 17.53 18.345C18.03 18.162 18.291 18.162 18.791 17.585C19.291 17.006 19.25 16.048 19.587 16.069C19.911 16.089 19.868 16.408 19.791 16.626C20.108 16.266 21.322 15.47 21.603 16.246C21.947 17.162 19.868 18.506 20.384 18.422C20.884 18.365 21.701 17.845 22.067 17.365L23.026 8.69797C23.026 8.69797 22.046 9.50097 15.874 9.50097C9.70701 9.50097 8.82701 8.71997 8.82701 8.71997L9.64401 16.627C10.087 15.392 11.124 12.876 12.744 12.975C13.483 13.018 14.477 14.455 13.619 14.491C13.259 14.512 13.218 13.772 12.802 13.674C12.483 13.617 12.062 13.857 11.786 14.138C11.245 14.674 10.046 16.809 10.207 17.871C10.406 19.226 12.082 17.408 12.363 16.871C12.562 16.491 12.702 15.351 13.119 15.471C13.562 15.59 13.082 16.772 12.759 17.788C12.4 18.949 12.218 20.163 11.786 20.023C11.343 19.882 12.062 18.387 12.021 18.127C11.604 18.528 10.844 19.486 9.84901 19.007L10.344 23.939C10.344 23.939 11.703 24.996 15.776 24.996C19.849 24.996 21.265 23.939 21.265 23.939L21.906 18.226C21.385 18.747 19.749 19.642 19.65 18.627C19.573 17.808 21.426 16.632 20.947 16.606L21.027 16.516ZM23.131 0.89097L19.584 4.62597L18.932 7.16197C21.443 7.31797 23.188 7.67797 23.188 8.08297C23.188 8.64597 19.969 9.09397 16 9.09397C12.031 9.09397 8.81201 8.63697 8.81201 8.07897C8.81201 7.52197 12.031 7.05797 16 7.05797C16.563 7.05797 17.125 7.05797 17.688 7.07897L18.432 4.04697L22.197 0.0519695C22.292 -0.0680305 22.573 0.0309695 22.833 0.25097C23.088 0.45397 23.229 0.70797 23.15 0.82797V0.86897L23.131 0.89097ZM18.016 8.61997C18.016 8.61997 17.317 8.61997 17.203 8.51097C17.1729 8.47824 17.1561 8.43544 17.156 8.39097C17.156 8.31197 17.208 8.27097 17.276 8.24597L17.333 8.34497C17.306 8.35597 17.297 8.36497 17.292 8.37597C17.292 8.43297 17.708 8.47097 18.031 8.46497C18.35 8.45997 18.74 8.43297 18.74 8.38097C18.74 8.36497 18.708 8.34997 18.656 8.33397L18.719 8.24097C18.803 8.26597 18.875 8.31797 18.875 8.40197C18.875 8.54697 18.688 8.57397 18.568 8.58897C18.427 8.60997 18.021 8.62097 18.021 8.62097L18.016 8.61997Z" fill="#D34A47"/>
</g>
<defs>
<clipPath id="clip0_24_14">
<rect width="32" height="32" fill="white"/>
</clipPath>
</defs>
</svg>
