<svg width="48" height="48" viewBox="0 0 92 92" fill="none" xmlns="http://www.w3.org/2000/svg">
<g clip-path="url(#clip0_1_44)">
<path d="M46.0585 0C33.9772 0 22.38 4.80333 13.8441 13.345C5.29932 21.89 0.497911 33.4786 0.495544 45.5629C0.495544 57.6421 5.30101 69.2393 13.8441 77.7809C22.38 86.3225 33.9772 91.1258 46.0585 91.1258C58.1398 91.1258 69.7369 86.3225 78.2729 77.7809C86.8159 69.2393 91.6214 57.6421 91.6214 45.5629C91.6214 33.4838 86.8159 21.8866 78.2729 13.345C69.7369 4.80333 58.1398 0 46.0585 0Z" fill="url(#paint0_linear_1_44)"/>
<path d="M45.5629 0C33.4816 0 21.8844 4.80333 13.3485 13.345C4.80378 21.89 0.00236692 33.4786 0 45.5629C0 57.6421 4.80546 69.2393 13.3485 77.7809C21.8844 86.3225 33.4816 91.1258 45.5629 91.1258C57.6442 91.1258 69.2414 86.3225 77.7773 77.7809C86.3204 69.2393 91.1258 57.6421 91.1258 45.5629C91.1258 33.4838 86.3204 21.8866 77.7773 13.345C69.2414 4.80333 57.6442 0 45.5629 0Z" fill="url(#paint1_linear_1_44)"/>
<path d="M21.1199 45.0817C34.4043 39.2952 43.2606 35.48 47.6888 33.6368C60.3467 28.3736 62.9737 27.4595 64.6894 27.4285C65.0668 27.4225 65.9068 27.5157 66.455 27.9589C66.9106 28.3327 67.0388 28.8381 67.1028 29.193C67.1598 29.5476 67.2381 30.3556 67.174 30.9863C66.4906 38.191 63.5219 55.6743 62.0126 63.7439C61.379 67.1583 60.1189 68.3031 58.9015 68.4149C56.2532 68.6583 54.2456 66.6664 51.6827 64.987C47.6745 62.3578 45.4106 60.7218 41.5164 58.1568C37.0171 55.1924 39.936 53.5628 42.4989 50.9002C43.1681 50.2032 54.8293 39.5992 55.05 38.6374C55.0785 38.517 55.107 38.0685 54.8365 37.8322C54.5731 37.5951 54.1815 37.6763 53.8967 37.7403C53.4909 37.8315 47.0908 42.066 34.6749 50.4431C32.8595 51.6918 31.2149 52.3005 29.7341 52.2685C28.111 52.2336 24.9785 51.3487 22.6505 50.5926C19.8028 49.665 17.5318 49.1745 17.7312 47.599C17.8308 46.7789 18.9628 45.9395 21.1199 45.0817Z" fill="white"/>
</g>
<defs>
<linearGradient id="paint0_linear_1_44" x1="46.0585" y1="0" x2="46.0585" y2="91.1258" gradientUnits="userSpaceOnUse">
<stop stop-color="#2AABEE"/>
<stop offset="1" stop-color="#229ED9"/>
</linearGradient>
<linearGradient id="paint1_linear_1_44" x1="45.5629" y1="0" x2="45.5629" y2="91.1258" gradientUnits="userSpaceOnUse">
<stop stop-color="#2AABEE"/>
<stop offset="1" stop-color="#229ED9"/>
</linearGradient>
<clipPath id="clip0_1_44">
<rect width="91.1258" height="91.1258" fill="white" transform="translate(0.495544)"/>
</clipPath>
</defs>
</svg>
