<svg width="32" height="32" viewBox="0 0 32 32" fill="none" xmlns="http://www.w3.org/2000/svg">
<g clip-path="url(#clip0_24_30)">
<path d="M5.94802 5.60902C6.93802 6.41602 7.31302 6.35902 9.18202 6.23402L26.802 5.17702C27.177 5.17702 26.865 4.80202 26.739 4.73902L23.812 2.62402C23.255 2.18602 22.505 1.69202 21.072 1.81102L4.01502 3.06102C3.39002 3.11802 3.26502 3.43102 3.51502 3.68102L5.94802 5.60902ZM7.00502 9.71902V28.255C7.00502 29.25 7.50002 29.625 8.62002 29.562L27.985 28.442C29.105 28.379 29.235 27.697 29.235 26.885V8.47402C29.235 7.66102 28.922 7.22902 28.235 7.29202L8.00102 8.47402C7.25102 8.53702 7.00602 8.90602 7.00602 9.71402L7.00502 9.71902ZM26.12 10.708C26.245 11.271 26.12 11.828 25.557 11.896L24.625 12.084V25.766C23.812 26.204 23.068 26.454 22.448 26.454C21.448 26.454 21.198 26.141 20.453 25.209L14.349 15.626V24.897L16.281 25.335C16.281 25.335 16.281 26.455 14.724 26.455L10.427 26.705C10.302 26.455 10.427 25.83 10.865 25.71L11.985 25.397V13.142L10.428 13.017C10.303 12.454 10.616 11.647 11.485 11.585L16.094 11.272L22.448 20.98V12.391L20.828 12.203C20.703 11.521 21.198 11.021 21.823 10.963L26.12 10.708ZM2.58302 1.38002L20.328 0.0730172C22.505 -0.114983 23.068 0.0100173 24.437 1.00502L30.104 4.98902C31.036 5.67102 31.349 5.85902 31.349 6.60402V28.443C31.349 29.813 30.849 30.62 29.109 30.745L8.49402 31.99C7.19202 32.053 6.56702 31.865 5.87902 30.995L1.70702 25.578C0.962024 24.583 0.650024 23.838 0.650024 22.969V3.55802C0.650024 2.43802 1.15002 1.50602 2.58202 1.38102L2.58302 1.38002Z" fill="black"/>
</g>
<defs>
<clipPath id="clip0_24_30">
<rect width="32" height="32" fill="white"/>
</clipPath>
</defs>
</svg>
