<svg width="48" height="48" viewBox="0 0 32 32" fill="none" xmlns="http://www.w3.org/2000/svg">
<path d="M26.297 27.031L26.328 26.968C26.3582 26.919 26.3827 26.8667 26.401 26.812V26.807C26.5 26.547 26.521 26.271 26.474 25.994V26.004C26.4226 25.7108 26.3164 25.4299 26.161 25.176L26.171 25.186L19.077 12.712L17.994 10.821L9.83797 25.186C9.69697 25.436 9.60897 25.707 9.56197 25.988V26.004C9.50497 26.327 9.54097 26.655 9.67097 26.957L9.66597 26.947C9.68197 26.994 9.70797 27.036 9.73397 27.082L9.72897 27.077C9.94297 27.442 10.396 27.879 11.396 27.879H24.594C24.802 27.879 25.828 27.837 26.302 27.03L26.297 27.031ZM17.995 14.609L24.474 26.005H11.521L17.995 14.609ZM31.661 25.188L22.307 8.70902C22.208 8.53202 21.672 7.65702 20.729 7.65702C20.307 7.65702 19.703 7.83902 19.208 8.70402L18 10.824L19.073 12.72L20.74 9.76702L29.995 26.012H26.474C26.521 26.283 26.495 26.559 26.401 26.819V26.809C26.38 26.866 26.359 26.924 26.328 26.976V26.971L26.297 27.034C25.823 27.841 24.802 27.883 24.604 27.883H30.109C30.312 27.883 31.328 27.841 31.802 27.034C32.016 26.664 32.161 26.05 31.661 25.19V25.188ZM9.73997 27.078L9.67697 26.953V26.948C9.54608 26.6485 9.5061 26.3171 9.56197 25.995V26.005H1.99897L13.239 6.22902L16.926 12.713L17.999 10.822L14.78 5.15502C14.691 4.99402 14.15 4.11902 13.212 4.11902C12.79 4.11902 12.181 4.30102 11.691 5.17102L0.305971 25.187C0.206971 25.359 -0.262029 26.265 0.206971 27.072C0.420971 27.442 0.873971 27.874 1.87397 27.874H11.405C10.415 27.874 9.95197 27.447 9.73797 27.072L9.73997 27.078Z" fill="#42B883"/>
</svg>
