<svg width="45" height="48" viewBox="0 0 31 35" fill="none" xmlns="http://www.w3.org/2000/svg">
<path d="M15.5 0.00579834L31 8.74433V26.2271L15.5 34.9656L0 26.2271V8.74433L15.5 0.00579834Z" fill="white"/>
<path d="M28.2334 25.6208L16.0148 32.5171V27.154L23.6302 22.9742L28.2334 25.6208ZM29.0698 24.8688V10.4582L24.6012 13.0289V22.2979L29.0698 24.8688V24.8688ZM2.71976 25.6207L14.9385 32.5114V27.1482L7.32301 22.9742L2.71976 25.6208V25.6207ZM1.88336 24.8688V10.4582L6.35209 13.0289V22.2979L1.88336 24.8688V24.8688ZM2.40407 9.52555L14.9385 2.46002V7.64847L6.90778 12.0497L6.84336 12.0847L2.40407 9.52543V9.52555ZM28.5434 9.52555L16.0148 2.4599V7.64835L24.0396 12.0553L24.1039 12.0903L28.5434 9.52531V9.52555Z" fill="#8ED6FB"/>
<path d="M14.9385 25.9298L7.42828 21.8083V13.6528L14.9385 17.9725V25.9298V25.9298ZM16.0148 25.9298L23.525 21.8142V13.6528L16.0148 17.9725V25.9298V25.9298ZM7.93131 12.7084L15.4767 8.57526L23.016 12.7084L15.4767 17.0456L7.93131 12.7084V12.7084Z" fill="#1C78C0"/>
</svg>
