<svg width="582" height="113" viewBox="0 0 582 113" fill="none" xmlns="http://www.w3.org/2000/svg">
<g clip-path="url(#clip0_7_5)">
<path d="M34.3763 34.1207C34.3763 29.199 38.4935 27.301 45.0898 27.301C54.6966 27.301 66.8932 30.2363 76.5 35.4008V5.76035C66.0299 1.58906 55.582 0 45.112 0C19.5013 0 2.43488 13.3305 2.43488 35.6215C2.43488 70.4705 50.4245 64.8205 50.4245 79.8504C50.4245 85.677 45.3554 87.5529 38.3164 87.5529C27.8685 87.5529 14.3659 83.2492 3.763 77.5109V105.871C14.6688 110.562 26.4169 112.995 38.2942 113.022C64.5469 113.022 82.6315 101.766 82.6315 79.1221C82.6315 41.5584 34.3763 48.2898 34.3763 34.1207V34.1207Z" fill="white"/>
</g>
<path d="M116.064 79.3613C115.248 80.1035 114.37 80.8086 113.43 81.4766C112.514 82.1198 111.549 82.6888 110.535 83.1836C109.521 83.6536 108.469 84.0247 107.381 84.2969C106.317 84.5938 105.229 84.7422 104.115 84.7422C101.666 84.7422 99.3652 84.3092 97.2129 83.4434C95.0605 82.5775 93.168 81.3529 91.5352 79.7695C89.9271 78.1615 88.653 76.2194 87.7129 73.9434C86.7975 71.6426 86.3398 69.0697 86.3398 66.2246V44.2559H96.4336V66.2246C96.4336 67.5605 96.6315 68.7604 97.0273 69.8242C97.4479 70.8633 98.0046 71.7415 98.6973 72.459C99.39 73.1764 100.194 73.7207 101.109 74.0918C102.049 74.4629 103.051 74.6484 104.115 74.6484C105.154 74.6484 106.132 74.4134 107.047 73.9434C107.987 73.4486 108.803 72.8053 109.496 72.0137C110.189 71.222 110.733 70.3314 111.129 69.3418C111.525 68.3275 111.723 67.2884 111.723 66.2246V44.2559H121.854V84H119.404L116.064 79.3613ZM139.814 99.1406H129.609V44.2559H132.059L136.104 49.043C137.019 48.1771 138.021 47.3607 139.109 46.5938C140.198 45.8268 141.324 45.1712 142.486 44.627C143.674 44.0579 144.898 43.6126 146.16 43.291C147.422 42.9694 148.696 42.8086 149.982 42.8086C152.778 42.8086 155.4 43.3158 157.85 44.3301C160.324 45.3197 162.476 46.7298 164.307 48.5605C166.162 50.3913 167.622 52.6055 168.686 55.2031C169.749 57.776 170.281 60.6335 170.281 63.7754C170.281 67.041 169.749 69.985 168.686 72.6074C167.622 75.2051 166.162 77.4193 164.307 79.25C162.476 81.056 160.324 82.4414 157.85 83.4062C155.4 84.3711 152.778 84.8535 149.982 84.8535C149.092 84.8535 148.201 84.7546 147.311 84.5566C146.445 84.3587 145.579 84.099 144.713 83.7773C143.872 83.431 143.031 83.0475 142.189 82.627C141.373 82.2064 140.581 81.7734 139.814 81.3281V99.1406ZM160.113 63.7754C160.113 62.0931 159.841 60.584 159.297 59.248C158.777 57.9121 158.06 56.7865 157.145 55.8711C156.229 54.931 155.153 54.2135 153.916 53.7188C152.679 53.224 151.368 52.9766 149.982 52.9766C148.597 52.9766 147.286 53.224 146.049 53.7188C144.837 54.2135 143.773 54.931 142.857 55.8711C141.942 56.7865 141.212 57.9121 140.668 59.248C140.148 60.584 139.889 62.0931 139.889 63.7754C139.889 65.3835 140.148 66.8555 140.668 68.1914C141.212 69.5273 141.942 70.6654 142.857 71.6055C143.773 72.5456 144.837 73.2754 146.049 73.7949C147.286 74.3145 148.597 74.5742 149.982 74.5742C151.368 74.5742 152.679 74.3145 153.916 73.7949C155.153 73.2754 156.229 72.5456 157.145 71.6055C158.06 70.6654 158.777 69.5273 159.297 68.1914C159.841 66.8555 160.113 65.3835 160.113 63.7754ZM187.648 41.4355V62.7363H198.299C199.758 62.7363 201.132 62.4642 202.418 61.9199C203.704 61.3509 204.83 60.584 205.795 59.6191C206.76 58.6543 207.514 57.5286 208.059 56.2422C208.628 54.931 208.912 53.5456 208.912 52.0859C208.912 50.6263 208.628 49.2533 208.059 47.9668C207.514 46.6556 206.76 45.5176 205.795 44.5527C204.83 43.5879 203.704 42.8333 202.418 42.2891C201.132 41.7201 199.758 41.4355 198.299 41.4355H187.648ZM187.648 84H176.998V30.7852H198.299C200.253 30.7852 202.133 31.0449 203.939 31.5645C205.745 32.0592 207.428 32.7767 208.986 33.7168C210.57 34.6322 212.005 35.7454 213.291 37.0566C214.602 38.3431 215.715 39.778 216.631 41.3613C217.571 42.9447 218.288 44.6393 218.783 46.4453C219.303 48.2513 219.562 50.1315 219.562 52.0859C219.562 55.0052 219.006 57.7637 217.893 60.3613C216.779 62.9342 215.258 65.1855 213.328 67.1152C211.398 69.0449 209.135 70.5664 206.537 71.6797C203.964 72.793 201.218 73.3496 198.299 73.3496H187.648V84ZM263.166 63.7754C263.166 66.7441 262.634 69.515 261.57 72.0879C260.507 74.6361 259.059 76.8503 257.229 78.7305C255.398 80.5859 253.245 82.0579 250.771 83.1465C248.322 84.2103 245.688 84.7422 242.867 84.7422C240.072 84.7422 237.437 84.2103 234.963 83.1465C232.514 82.0579 230.361 80.5859 228.506 78.7305C226.675 76.8503 225.228 74.6361 224.164 72.0879C223.1 69.515 222.568 66.7441 222.568 63.7754C222.568 60.7572 223.1 57.9616 224.164 55.3887C225.228 52.8158 226.675 50.6016 228.506 48.7461C230.361 46.8659 232.514 45.3939 234.963 44.3301C237.437 43.2663 240.072 42.7344 242.867 42.7344C245.688 42.7344 248.322 43.2415 250.771 44.2559C253.245 45.2454 255.398 46.668 257.229 48.5234C259.059 50.3542 260.507 52.5684 261.57 55.166C262.634 57.7389 263.166 60.6087 263.166 63.7754ZM252.961 63.7754C252.961 62.1426 252.689 60.6706 252.145 59.3594C251.625 58.0234 250.908 56.8854 249.992 55.9453C249.077 54.9805 248.001 54.2507 246.764 53.7559C245.551 53.2363 244.253 52.9766 242.867 52.9766C241.482 52.9766 240.171 53.2363 238.934 53.7559C237.721 54.2507 236.658 54.9805 235.742 55.9453C234.852 56.8854 234.146 58.0234 233.627 59.3594C233.107 60.6706 232.848 62.1426 232.848 63.7754C232.848 65.3092 233.107 66.7318 233.627 68.043C234.146 69.3542 234.852 70.4922 235.742 71.457C236.658 72.4219 237.721 73.1888 238.934 73.7578C240.171 74.3021 241.482 74.5742 242.867 74.5742C244.253 74.5742 245.551 74.3145 246.764 73.7949C248.001 73.2754 249.077 72.5456 249.992 71.6055C250.908 70.6654 251.625 69.5273 252.145 68.1914C252.689 66.8555 252.961 65.3835 252.961 63.7754ZM278.975 84H268.77V28.4473H278.975V84ZM296.305 99.1406V88.9355L301.945 89.0098C302.935 89.0098 303.887 88.849 304.803 88.5273C305.718 88.2057 306.559 87.7604 307.326 87.1914C308.118 86.6224 308.811 85.9421 309.404 85.1504C309.998 84.3835 310.48 83.5423 310.852 82.627C309.738 83.097 308.6 83.5671 307.438 84.0371C306.299 84.5072 305.149 84.7422 303.986 84.7422C301.537 84.7422 299.236 84.3092 297.084 83.4434C294.932 82.5775 293.039 81.3529 291.406 79.7695C289.798 78.1615 288.524 76.2194 287.584 73.9434C286.669 71.6426 286.211 69.0697 286.211 66.2246V44.2559H296.305V66.2246C296.305 67.6348 296.503 68.8717 296.898 69.9355C297.319 70.9746 297.876 71.8529 298.568 72.5703C299.261 73.263 300.065 73.7826 300.98 74.1289C301.921 74.4753 302.923 74.6484 303.986 74.6484C305.025 74.6484 306.003 74.4134 306.918 73.9434C307.858 73.4486 308.674 72.8053 309.367 72.0137C310.06 71.222 310.604 70.3314 311 69.3418C311.396 68.3275 311.594 67.2884 311.594 66.2246V44.2559H321.799V78.9902C321.774 81.7858 321.23 84.4082 320.166 86.8574C319.102 89.3066 317.643 91.4466 315.787 93.2773C313.956 95.1081 311.816 96.5553 309.367 97.6191C306.918 98.6829 304.296 99.2148 301.5 99.2148L296.305 99.1406ZM368.037 84H365.588L361.654 78.5449C360.689 79.4108 359.663 80.2272 358.574 80.9941C357.51 81.7363 356.385 82.3919 355.197 82.9609C354.01 83.5052 352.785 83.9382 351.523 84.2598C350.286 84.5814 349.025 84.7422 347.738 84.7422C344.943 84.7422 342.308 84.2721 339.834 83.332C337.385 82.3919 335.232 81.0312 333.377 79.25C331.546 77.444 330.099 75.2422 329.035 72.6445C327.971 70.0469 327.439 67.0905 327.439 63.7754C327.439 60.6829 327.971 57.8503 329.035 55.2773C330.099 52.6797 331.546 50.4531 333.377 48.5977C335.232 46.7422 337.385 45.3073 339.834 44.293C342.308 43.2539 344.943 42.7344 347.738 42.7344C349.025 42.7344 350.299 42.8952 351.561 43.2168C352.822 43.5384 354.047 43.9837 355.234 44.5527C356.422 45.1217 357.548 45.7897 358.611 46.5566C359.7 47.3236 360.714 48.1523 361.654 49.043L365.588 44.3301H368.037V84ZM357.832 63.7754C357.832 62.39 357.56 61.054 357.016 59.7676C356.496 58.4564 355.779 57.306 354.863 56.3164C353.948 55.3021 352.872 54.498 351.635 53.9043C350.423 53.2858 349.124 52.9766 347.738 52.9766C346.353 52.9766 345.042 53.2116 343.805 53.6816C342.592 54.1517 341.529 54.8444 340.613 55.7598C339.723 56.6751 339.018 57.8132 338.498 59.1738C337.979 60.5098 337.719 62.0436 337.719 63.7754C337.719 65.5072 337.979 67.0534 338.498 68.4141C339.018 69.75 339.723 70.8757 340.613 71.791C341.529 72.7064 342.592 73.3991 343.805 73.8691C345.042 74.3392 346.353 74.5742 347.738 74.5742C349.124 74.5742 350.423 74.2773 351.635 73.6836C352.872 73.0651 353.948 72.2611 354.863 71.2715C355.779 70.2572 356.496 69.1068 357.016 67.8203C357.56 66.5091 357.832 65.1608 357.832 63.7754ZM385.924 84H375.793V44.2559H378.242L381.582 48.9688C383.215 47.4844 385.07 46.3464 387.148 45.5547C389.227 44.7383 391.379 44.3301 393.605 44.3301H402.549V54.4238H393.605C392.542 54.4238 391.54 54.6217 390.6 55.0176C389.66 55.4134 388.843 55.9577 388.15 56.6504C387.458 57.3431 386.913 58.1595 386.518 59.0996C386.122 60.0397 385.924 61.0417 385.924 62.1055V84ZM482.445 68.7852C482.445 70.987 482.025 73.0651 481.184 75.0195C480.367 76.9492 479.229 78.6439 477.77 80.1035C476.335 81.5384 474.64 82.6764 472.686 83.5176C470.756 84.334 468.69 84.7422 466.488 84.7422C464.509 84.7422 462.604 84.3958 460.773 83.7031C458.967 83.0104 457.335 81.9961 455.875 80.6602C454.415 81.9961 452.77 83.0104 450.939 83.7031C449.109 84.3958 447.204 84.7422 445.225 84.7422C443.023 84.7422 440.945 84.334 438.99 83.5176C437.061 82.6764 435.366 81.5384 433.906 80.1035C432.471 78.6439 431.333 76.9492 430.492 75.0195C429.676 73.0651 429.268 70.987 429.268 68.7852V30.7852H439.918V68.7852C439.918 69.5273 440.054 70.2324 440.326 70.9004C440.598 71.5436 440.969 72.1126 441.439 72.6074C441.934 73.0775 442.503 73.4486 443.146 73.7207C443.79 73.9928 444.482 74.1289 445.225 74.1289C445.967 74.1289 446.66 73.9928 447.303 73.7207C447.946 73.4486 448.503 73.0775 448.973 72.6074C449.467 72.1126 449.851 71.5436 450.123 70.9004C450.395 70.2324 450.531 69.5273 450.531 68.7852V30.7852H461.182V68.7852C461.182 69.5273 461.318 70.2324 461.59 70.9004C461.862 71.5436 462.233 72.1126 462.703 72.6074C463.198 73.0775 463.767 73.4486 464.41 73.7207C465.053 73.9928 465.746 74.1289 466.488 74.1289C467.23 74.1289 467.923 73.9928 468.566 73.7207C469.21 73.4486 469.766 73.0775 470.236 72.6074C470.731 72.1126 471.115 71.5436 471.387 70.9004C471.684 70.2324 471.832 69.5273 471.832 68.7852V30.7852H482.445V68.7852ZM528.461 84H491.982V30.7852H528.461V41.4355H502.633V52.0859H520.111V62.7363H502.633V73.3496H528.461V84ZM578.484 68.043C578.484 70.2448 578.064 72.3105 577.223 74.2402C576.382 76.1699 575.231 77.8646 573.771 79.3242C572.337 80.7591 570.654 81.8971 568.725 82.7383C566.795 83.5794 564.729 84 562.527 84H535.92V30.7852H562.527C564.729 30.7852 566.795 31.2057 568.725 32.0469C570.654 32.888 572.337 34.0384 573.771 35.498C575.231 36.9329 576.382 38.6152 577.223 40.5449C578.064 42.4746 578.484 44.5404 578.484 46.7422C578.484 47.7318 578.348 48.7461 578.076 49.7852C577.804 50.8242 577.421 51.8262 576.926 52.791C576.431 53.7559 575.837 54.6341 575.145 55.4258C574.452 56.2174 573.685 56.873 572.844 57.3926C573.71 57.8626 574.489 58.5059 575.182 59.3223C575.874 60.1139 576.468 60.9922 576.963 61.957C577.458 62.9219 577.829 63.9362 578.076 65C578.348 66.0391 578.484 67.0534 578.484 68.043ZM546.57 73.3496H562.527C563.27 73.3496 563.962 73.2135 564.605 72.9414C565.249 72.6693 565.805 72.2982 566.275 71.8281C566.77 71.3333 567.154 70.7643 567.426 70.1211C567.698 69.4779 567.834 68.7852 567.834 68.043C567.834 67.3008 567.698 66.6081 567.426 65.9648C567.154 65.3216 566.77 64.765 566.275 64.2949C565.805 63.8001 565.249 63.4167 564.605 63.1445C563.962 62.8724 563.27 62.7363 562.527 62.7363H546.57V73.3496ZM546.57 52.0859H562.527C563.27 52.0859 563.962 51.9499 564.605 51.6777C565.249 51.4056 565.805 51.0345 566.275 50.5645C566.77 50.0697 567.154 49.5007 567.426 48.8574C567.698 48.1895 567.834 47.4844 567.834 46.7422C567.834 46 567.698 45.3073 567.426 44.6641C567.154 44.0208 566.77 43.4642 566.275 42.9941C565.805 42.4993 565.249 42.1159 564.605 41.8438C563.962 41.5716 563.27 41.4355 562.527 41.4355H546.57V52.0859Z" fill="white"/>
<defs>
<clipPath id="clip0_7_5">
<rect width="85" height="113" fill="white"/>
</clipPath>
</defs>
</svg>
