<svg xmlns="http://www.w3.org/2000/svg" width="2500" height="2500" viewBox="0 0 192.756 192.756">
  <g fill-rule="evenodd" clip-rule="evenodd">
    <path fill="#fff" d="M0 0h192.756v192.756H0V0z"/>
    <path fill="#cc2229" d="M164.771 167.385V25.291H22.677v142.094h142.094z"/>
    <path fill="#fff" d="M159.67 162.283V30.391H27.778v131.892H159.67z"/>
    <path fill="#cc2229"
          d="M73.321 75.934V35.491H32.878v40.443h40.443zM154.57 157.184V116.74h-40.443v40.444h40.443zM73.321 157.184V116.74H32.878v40.444h40.443zM154.57 75.934V35.491h-40.443v40.443h40.443zM114.127 116.74V75.934H73.321v40.806h40.806z"/>
    <path
      d="M181.752 26.496c-4.373 0-8.018 3.279-8.018 7.65 0 4.373 3.645 7.651 8.018 7.651 4.371 0 7.65-3.279 7.65-7.651s-3.279-7.65-7.65-7.65zm-.365 1.092h.365c3.277 0 6.193 2.915 6.193 6.558 0 3.644-2.916 6.194-6.193 6.194-3.645 0-6.193-2.55-6.193-6.194 0-3.643 2.548-6.193 5.828-6.558zm-2.551 2.186v8.744h1.094v-3.644h1.822l2.186 3.644h1.457l-2.551-4.008c1.457 0 2.551-1.093 2.551-2.186 0-1.821-1.094-2.55-3.279-2.55h-3.28zm1.094 3.644v-2.551h1.822c1.457 0 2.186.365 2.186 1.458 0 .729-.729 1.093-1.822 1.093h-2.186z"
      fill="black"/>
  </g>
</svg>
